<svg width="180" height="52" viewBox="0 0 180 52" fill="none" xmlns="http://www.w3.org/2000/svg">
<path d="M173.333 52H6.66667C3.00167 52 0 49.0734 0 45.5V6.5C0 2.92663 3.00167 2.74817e-06 6.66667 2.74817e-06H173.333C176.998 2.74817e-06 180 2.92663 180 6.5V45.5C180 49.0734 176.998 52 173.333 52Z" fill="#001E3A"/>
<path fill-rule="evenodd" clip-rule="evenodd" d="M31.6373 12.4819C32.7822 11.0756 34.7864 10.0753 36.4094 10C36.5999 11.9259 35.855 13.8112 34.7276 15.2175C33.5827 16.5861 31.7505 17.6663 29.9176 17.5119C29.6901 15.6632 30.5877 13.6943 31.6373 12.4819ZM32.2195 19.3707C33.2902 18.9662 34.6091 18.4679 36.1968 18.4679H36.4398C37.1687 18.4679 40.2963 18.8455 42.1876 21.5602C42.1791 21.5662 42.1608 21.5778 42.1337 21.5948C41.6741 21.8842 38.6942 23.7605 38.729 27.4689C38.7656 31.8837 42.471 33.5279 42.9495 33.7402C42.9803 33.7539 42.9978 33.7616 43 33.7638C42.9983 33.7688 42.9955 33.7778 42.9914 33.7908C42.9048 34.0652 42.2683 36.0829 40.8057 38.1503C40.7822 38.1837 40.7587 38.2172 40.7352 38.2506C39.4178 40.1266 38.1023 42 35.9539 42C34.8902 42 34.1732 41.7216 33.4369 41.4356C32.6594 41.1337 31.8603 40.8234 30.6085 40.8234C29.3123 40.8234 28.5158 41.1399 27.7476 41.4451C27.0815 41.7097 26.4368 41.9659 25.5061 42C23.3194 42 21.6975 39.9857 20.3544 38.0768C17.6137 34.2231 15.5139 27.214 18.3499 22.4794C19.73 20.1111 22.3475 18.4863 25.0202 18.4863C26.2617 18.4863 27.4081 18.9355 28.399 19.3238C29.1534 19.6195 29.8178 19.8798 30.3655 19.8798C30.8721 19.8798 31.4879 19.6472 32.2195 19.3707Z" fill="white"/>
<path d="M173.333 1.04162C176.42 1.04162 178.932 3.4905 178.932 6.5V45.5C178.932 48.5095 176.42 50.9584 173.333 50.9584H6.66667C3.58 50.9584 1.06833 48.5095 1.06833 45.5V6.5C1.06833 3.4905 3.58 1.04162 6.66667 1.04162H173.333ZM173.333 2.74817e-06H6.66667C3.00167 2.74817e-06 0 2.92663 0 6.5V45.5C0 49.0734 3.00167 52 6.66667 52H173.333C176.998 52 180 49.0734 180 45.5V6.5C180 2.92663 176.998 2.74817e-06 173.333 2.74817e-06Z" fill="#A6A6A6"/>
<path d="M63.0755 13.3162C63.0755 14.4017 62.7427 15.2711 62.0869 15.9195C61.333 16.6881 60.351 17.0748 59.1476 17.0748C57.9975 17.0748 57.0156 16.6816 56.21 15.9065C55.4028 15.12 55 14.1547 55 12.9993C55 11.844 55.4028 10.8787 56.21 10.0987C57.0156 9.31708 57.9975 8.92383 59.1476 8.92383C59.7202 8.92383 60.2661 9.0392 60.787 9.2537C61.3063 9.46983 61.7291 9.76233 62.0353 10.1231L61.3396 10.8088C60.8053 10.193 60.078 9.88908 59.1476 9.88908C58.3088 9.88908 57.5814 10.1751 56.964 10.752C56.3531 11.3305 56.0469 12.0796 56.0469 12.9993C56.0469 13.9191 56.3531 14.6747 56.964 15.2532C57.5814 15.8236 58.3088 16.1161 59.1476 16.1161C60.0381 16.1161 60.787 15.8236 61.3779 15.2467C61.7674 14.8648 61.9887 14.3383 62.047 13.6656H59.1476V12.7263H63.0156C63.0622 12.9295 63.0755 13.1261 63.0755 13.3162Z" fill="white" stroke="white" stroke-width="0.16" stroke-miterlimit="10"/>
<path d="M69.2127 10.0606H65.5794V12.5306H68.8549V13.4699H65.5794V15.9399H69.2127V16.897H64.5508V9.10352H69.2127V10.0606Z" fill="white" stroke="white" stroke-width="0.16" stroke-miterlimit="10"/>
<path d="M73.5433 16.897H72.5147V10.0606H70.2861V9.10352H75.7736V10.0606H73.5433V16.897Z" fill="white" stroke="white" stroke-width="0.16" stroke-miterlimit="10"/>
<path d="M79.7441 16.897V9.10352H80.7711V16.897H79.7441Z" fill="white" stroke="white" stroke-width="0.16" stroke-miterlimit="10"/>
<path d="M85.3236 16.897H84.3033V10.0606H82.0664V9.10352H87.5605V10.0606H85.3236V16.897Z" fill="white" stroke="white" stroke-width="0.16" stroke-miterlimit="10"/>
<path d="M97.9494 15.8935C97.1621 16.6816 96.1868 17.0748 95.0234 17.0748C93.8533 17.0748 92.878 16.6816 92.0908 15.8935C91.3052 15.107 90.9141 14.1417 90.9141 12.9993C90.9141 11.857 91.3052 10.8917 92.0908 10.1052C92.878 9.31708 93.8533 8.92383 95.0234 8.92383C96.1801 8.92383 97.1555 9.31708 97.9427 10.1117C98.735 10.9047 99.1261 11.8635 99.1261 12.9993C99.1261 14.1417 98.735 15.107 97.9494 15.8935ZM92.8514 15.2402C93.4439 15.8236 94.1646 16.1161 95.0234 16.1161C95.8756 16.1161 96.6029 15.8236 97.1888 15.2402C97.7796 14.6568 98.0792 13.9077 98.0792 12.9993C98.0792 12.091 97.7796 11.3418 97.1888 10.7585C96.6029 10.1751 95.8756 9.88258 95.0234 9.88258C94.1646 9.88258 93.4439 10.1751 92.8514 10.7585C92.2605 11.3418 91.961 12.091 91.961 12.9993C91.961 13.9077 92.2605 14.6568 92.8514 15.2402Z" fill="white" stroke="white" stroke-width="0.16" stroke-miterlimit="10"/>
<path d="M100.569 16.897V9.10352H101.818L105.699 15.1648H105.744L105.699 13.6665V9.10352H106.726V16.897H105.654L101.59 10.5368H101.545L101.59 12.0415V16.897H100.569Z" fill="white" stroke="white" stroke-width="0.16" stroke-miterlimit="10"/>
<path d="M65.2902 33.994L63.3542 28.703C63.2589 28.4683 63.1599 28.1897 63.0572 27.867C62.9546 27.5443 62.8519 27.196 62.7492 26.822C62.6539 27.196 62.5549 27.548 62.4522 27.878C62.3496 28.2007 62.2506 28.483 62.1552 28.725L60.2302 33.994H65.2902ZM70.5152 40H68.2272C67.9706 40 67.7616 39.9377 67.6002 39.813C67.4389 39.681 67.3179 39.5197 67.2372 39.329L66.0492 36.084H59.4602L58.2722 39.329C58.2136 39.4977 58.0999 39.6517 57.9312 39.791C57.7626 39.9303 57.5536 40 57.3042 40H54.9942L61.2532 24.094H64.2672L70.5152 40ZM74.4281 37.074C74.7361 37.448 75.0698 37.712 75.4291 37.866C75.7958 38.02 76.1918 38.097 76.6171 38.097C77.0278 38.097 77.3981 38.02 77.7281 37.866C78.0581 37.712 78.3368 37.4773 78.5641 37.162C78.7988 36.8467 78.9785 36.4507 79.1031 35.974C79.2278 35.49 79.2901 34.9217 79.2901 34.269C79.2901 33.609 79.2351 33.0517 79.1251 32.597C79.0225 32.135 78.8721 31.761 78.6741 31.475C78.4761 31.189 78.2341 30.98 77.9481 30.848C77.6695 30.716 77.3505 30.65 76.9911 30.65C76.4265 30.65 75.9461 30.771 75.5501 31.013C75.1541 31.2477 74.7801 31.5813 74.4281 32.014V37.074ZM74.2851 30.254C74.7471 29.7333 75.2715 29.3117 75.8581 28.989C76.4448 28.6663 77.1341 28.505 77.9261 28.505C78.5421 28.505 79.1031 28.6333 79.6091 28.89C80.1225 29.1467 80.5625 29.5207 80.9291 30.012C81.3031 30.496 81.5891 31.0973 81.7871 31.816C81.9925 32.5273 82.0951 33.345 82.0951 34.269C82.0951 35.1123 81.9815 35.8933 81.7541 36.612C81.5268 37.3307 81.2005 37.954 80.7751 38.482C80.3571 39.01 79.8475 39.4243 79.2461 39.725C78.6521 40.0183 77.9848 40.165 77.2441 40.165C76.6135 40.165 76.0745 40.0697 75.6271 39.879C75.1798 39.681 74.7801 39.4097 74.4281 39.065V43.685H71.7111V28.714H73.3721C73.7241 28.714 73.9551 28.879 74.0651 29.209L74.2851 30.254ZM86.932 37.074C87.24 37.448 87.5737 37.712 87.933 37.866C88.2997 38.02 88.6957 38.097 89.121 38.097C89.5317 38.097 89.902 38.02 90.232 37.866C90.562 37.712 90.8407 37.4773 91.068 37.162C91.3027 36.8467 91.4824 36.4507 91.607 35.974C91.7317 35.49 91.794 34.9217 91.794 34.269C91.794 33.609 91.739 33.0517 91.629 32.597C91.5264 32.135 91.376 31.761 91.178 31.475C90.98 31.189 90.738 30.98 90.452 30.848C90.1734 30.716 89.8544 30.65 89.495 30.65C88.9304 30.65 88.45 30.771 88.054 31.013C87.658 31.2477 87.284 31.5813 86.932 32.014V37.074ZM86.789 30.254C87.251 29.7333 87.7754 29.3117 88.362 28.989C88.9487 28.6663 89.638 28.505 90.43 28.505C91.046 28.505 91.607 28.6333 92.113 28.89C92.6264 29.1467 93.0664 29.5207 93.433 30.012C93.807 30.496 94.093 31.0973 94.291 31.816C94.4964 32.5273 94.599 33.345 94.599 34.269C94.599 35.1123 94.4854 35.8933 94.258 36.612C94.0307 37.3307 93.7044 37.954 93.279 38.482C92.861 39.01 92.3514 39.4243 91.75 39.725C91.156 40.0183 90.4887 40.165 89.748 40.165C89.1174 40.165 88.5784 40.0697 88.131 39.879C87.6837 39.681 87.284 39.4097 86.932 39.065V43.685H84.215V28.714H85.876C86.228 28.714 86.459 28.879 86.569 29.209L86.789 30.254ZM99.469 23.654V40H96.752V23.654H99.469ZM109.447 33.059C109.447 32.707 109.396 32.377 109.293 32.069C109.198 31.7537 109.051 31.4787 108.853 31.244C108.655 31.0093 108.402 30.826 108.094 30.694C107.793 30.5547 107.441 30.485 107.038 30.485C106.253 30.485 105.634 30.7087 105.179 31.156C104.732 31.6033 104.446 32.2377 104.321 33.059H109.447ZM104.266 34.698C104.31 35.2773 104.413 35.7797 104.574 36.205C104.735 36.623 104.948 36.9713 105.212 37.25C105.476 37.5213 105.788 37.7267 106.147 37.866C106.514 37.998 106.917 38.064 107.357 38.064C107.797 38.064 108.175 38.0127 108.49 37.91C108.813 37.8073 109.091 37.6937 109.326 37.569C109.568 37.4443 109.777 37.3307 109.953 37.228C110.136 37.1253 110.312 37.074 110.481 37.074C110.708 37.074 110.877 37.1583 110.987 37.327L111.768 38.317C111.467 38.669 111.13 38.966 110.756 39.208C110.382 39.4427 109.99 39.6333 109.579 39.78C109.176 39.9193 108.761 40.0183 108.336 40.077C107.918 40.1357 107.511 40.165 107.115 40.165C106.33 40.165 105.601 40.0367 104.926 39.78C104.251 39.516 103.665 39.131 103.166 38.625C102.667 38.1117 102.275 37.481 101.989 36.733C101.703 35.9777 101.56 35.105 101.56 34.115C101.56 33.345 101.685 32.6227 101.934 31.948C102.183 31.266 102.539 30.6757 103.001 30.177C103.47 29.671 104.039 29.2713 104.706 28.978C105.381 28.6847 106.14 28.538 106.983 28.538C107.694 28.538 108.351 28.6517 108.952 28.879C109.553 29.1063 110.07 29.44 110.503 29.88C110.936 30.3127 111.273 30.848 111.515 31.486C111.764 32.1167 111.889 32.839 111.889 33.653C111.889 34.0637 111.845 34.3423 111.757 34.489C111.669 34.6283 111.5 34.698 111.251 34.698H104.266ZM128.177 26.987C128.089 27.141 127.993 27.2547 127.891 27.328C127.795 27.394 127.674 27.427 127.528 27.427C127.374 27.427 127.205 27.372 127.022 27.262C126.846 27.1447 126.633 27.0163 126.384 26.877C126.134 26.7377 125.841 26.613 125.504 26.503C125.174 26.3857 124.781 26.327 124.327 26.327C123.916 26.327 123.557 26.3783 123.249 26.481C122.941 26.5763 122.68 26.712 122.468 26.888C122.262 27.064 122.108 27.2767 122.006 27.526C121.903 27.768 121.852 28.0357 121.852 28.329C121.852 28.703 121.954 29.0147 122.16 29.264C122.372 29.5133 122.651 29.726 122.996 29.902C123.34 30.078 123.733 30.2357 124.173 30.375C124.613 30.5143 125.064 30.6647 125.526 30.826C125.988 30.98 126.439 31.1633 126.879 31.376C127.319 31.5813 127.711 31.8453 128.056 32.168C128.4 32.4833 128.675 32.872 128.881 33.334C129.093 33.796 129.2 34.357 129.2 35.017C129.2 35.7357 129.075 36.4103 128.826 37.041C128.584 37.6643 128.224 38.2107 127.748 38.68C127.278 39.142 126.703 39.5087 126.021 39.78C125.339 40.044 124.558 40.176 123.678 40.176C123.172 40.176 122.673 40.1247 122.182 40.022C121.69 39.9267 121.217 39.7873 120.763 39.604C120.315 39.4207 119.894 39.2007 119.498 38.944C119.102 38.6873 118.75 38.4013 118.442 38.086L119.311 36.667C119.384 36.5643 119.479 36.48 119.597 36.414C119.714 36.3407 119.839 36.304 119.971 36.304C120.154 36.304 120.352 36.381 120.565 36.535C120.777 36.6817 121.03 36.8467 121.324 37.03C121.617 37.2133 121.958 37.382 122.347 37.536C122.743 37.6827 123.216 37.756 123.766 37.756C124.609 37.756 125.262 37.558 125.724 37.162C126.186 36.7587 126.417 36.183 126.417 35.435C126.417 35.017 126.31 34.676 126.098 34.412C125.892 34.148 125.617 33.928 125.273 33.752C124.928 33.5687 124.536 33.4147 124.096 33.29C123.656 33.1653 123.208 33.0297 122.754 32.883C122.299 32.7363 121.852 32.5603 121.412 32.355C120.972 32.1497 120.579 31.882 120.235 31.552C119.89 31.222 119.611 30.8113 119.399 30.32C119.193 29.8213 119.091 29.209 119.091 28.483C119.091 27.9037 119.204 27.339 119.432 26.789C119.666 26.239 120.004 25.7513 120.444 25.326C120.884 24.9007 121.426 24.5597 122.072 24.303C122.717 24.0463 123.458 23.918 124.294 23.918C125.232 23.918 126.098 24.0647 126.89 24.358C127.682 24.6513 128.356 25.062 128.914 25.59L128.177 26.987ZM134.62 40.176C133.637 40.176 132.882 39.901 132.354 39.351C131.833 38.7937 131.573 38.0273 131.573 37.052V30.749H130.418C130.271 30.749 130.146 30.7013 130.044 30.606C129.941 30.5107 129.89 30.3677 129.89 30.177V29.099L131.705 28.802L132.277 25.722C132.313 25.5753 132.383 25.4617 132.486 25.381C132.588 25.3003 132.72 25.26 132.882 25.26H134.29V28.813H137.304V30.749H134.29V36.865C134.29 37.217 134.374 37.492 134.543 37.69C134.719 37.888 134.957 37.987 135.258 37.987C135.426 37.987 135.566 37.9687 135.676 37.932C135.793 37.888 135.892 37.844 135.973 37.8C136.061 37.756 136.138 37.7157 136.204 37.679C136.27 37.635 136.336 37.613 136.402 37.613C136.482 37.613 136.548 37.635 136.6 37.679C136.651 37.7157 136.706 37.7743 136.765 37.855L137.579 39.175C137.183 39.505 136.728 39.7543 136.215 39.923C135.701 40.0917 135.17 40.176 134.62 40.176ZM143.951 28.538C144.787 28.538 145.546 28.6737 146.228 28.945C146.918 29.2163 147.504 29.6013 147.988 30.1C148.48 30.5987 148.857 31.2073 149.121 31.926C149.385 32.6447 149.517 33.4477 149.517 34.335C149.517 35.2297 149.385 36.0363 149.121 36.755C148.857 37.4737 148.48 38.086 147.988 38.592C147.504 39.098 146.918 39.4867 146.228 39.758C145.546 40.0293 144.787 40.165 143.951 40.165C143.108 40.165 142.342 40.0293 141.652 39.758C140.963 39.4867 140.373 39.098 139.881 38.592C139.397 38.086 139.02 37.4737 138.748 36.755C138.484 36.0363 138.352 35.2297 138.352 34.335C138.352 33.4477 138.484 32.6447 138.748 31.926C139.02 31.2073 139.397 30.5987 139.881 30.1C140.373 29.6013 140.963 29.2163 141.652 28.945C142.342 28.6737 143.108 28.538 143.951 28.538ZM143.951 38.075C144.89 38.075 145.583 37.7597 146.03 37.129C146.485 36.4983 146.712 35.5743 146.712 34.357C146.712 33.1397 146.485 32.212 146.03 31.574C145.583 30.936 144.89 30.617 143.951 30.617C142.998 30.617 142.29 30.9397 141.828 31.585C141.374 32.223 141.146 33.147 141.146 34.357C141.146 35.567 141.374 36.491 141.828 37.129C142.29 37.7597 142.998 38.075 143.951 38.075ZM154.153 30.672C154.505 29.9973 154.923 29.4693 155.407 29.088C155.891 28.6993 156.463 28.505 157.123 28.505C157.644 28.505 158.062 28.6187 158.377 28.846L158.201 30.881C158.164 31.013 158.109 31.1083 158.036 31.167C157.97 31.2183 157.878 31.244 157.761 31.244C157.651 31.244 157.486 31.2257 157.266 31.189C157.053 31.1523 156.844 31.134 156.639 31.134C156.338 31.134 156.071 31.178 155.836 31.266C155.601 31.354 155.389 31.4823 155.198 31.651C155.015 31.8123 154.85 32.0103 154.703 32.245C154.564 32.4797 154.432 32.7473 154.307 33.048V40H151.59V28.714H153.185C153.464 28.714 153.658 28.7653 153.768 28.868C153.878 28.9633 153.951 29.1393 153.988 29.396L154.153 30.672ZM166.746 33.059C166.746 32.707 166.694 32.377 166.592 32.069C166.496 31.7537 166.35 31.4787 166.152 31.244C165.954 31.0093 165.701 30.826 165.393 30.694C165.092 30.5547 164.74 30.485 164.337 30.485C163.552 30.485 162.932 30.7087 162.478 31.156C162.03 31.6033 161.744 32.2377 161.62 33.059H166.746ZM161.565 34.698C161.609 35.2773 161.711 35.7797 161.873 36.205C162.034 36.623 162.247 36.9713 162.511 37.25C162.775 37.5213 163.086 37.7267 163.446 37.866C163.812 37.998 164.216 38.064 164.656 38.064C165.096 38.064 165.473 38.0127 165.789 37.91C166.111 37.8073 166.39 37.6937 166.625 37.569C166.867 37.4443 167.076 37.3307 167.252 37.228C167.435 37.1253 167.611 37.074 167.78 37.074C168.007 37.074 168.176 37.1583 168.286 37.327L169.067 38.317C168.766 38.669 168.429 38.966 168.055 39.208C167.681 39.4427 167.288 39.6333 166.878 39.78C166.474 39.9193 166.06 40.0183 165.635 40.077C165.217 40.1357 164.81 40.165 164.414 40.165C163.629 40.165 162.899 40.0367 162.225 39.78C161.55 39.516 160.963 39.131 160.465 38.625C159.966 38.1117 159.574 37.481 159.288 36.733C159.002 35.9777 158.859 35.105 158.859 34.115C158.859 33.345 158.983 32.6227 159.233 31.948C159.482 31.266 159.838 30.6757 160.3 30.177C160.769 29.671 161.337 29.2713 162.005 28.978C162.679 28.6847 163.438 28.538 164.282 28.538C164.993 28.538 165.649 28.6517 166.251 28.879C166.852 29.1063 167.369 29.44 167.802 29.88C168.234 30.3127 168.572 30.848 168.814 31.486C169.063 32.1167 169.188 32.839 169.188 33.653C169.188 34.0637 169.144 34.3423 169.056 34.489C168.968 34.6283 168.799 34.698 168.55 34.698H161.565Z" fill="white"/>
</svg>
