<svg xmlns="http://www.w3.org/2000/svg" width="376" height="444" fill="none" viewBox="0 0 376 444"><path fill="#F2F2F2" d="m154.15 2.54-10.006 5.448-123.268 67.12-10.005 5.449C.763 86.076-2.962 98.719 2.546 108.819L94.34 276.715c5.53 10.089 18.199 13.805 28.321 8.308l.025-.013 143.229-77.989.025-.013c10.109-5.519 13.833-18.163 8.325-28.263L182.47 10.849C176.94.761 164.272-2.956 154.15 2.54Z"/><path fill="#fff" d="m155.909 6.414-11.873 6.464L24.241 78.104l-11.872 6.464c-7.212 3.938-9.869 12.957-5.94 20.163l91.962 168.192c3.945 7.197 12.984 9.849 20.205 5.928l.025-.015 143.488-78.125.026-.015c7.211-3.936 9.869-12.957 5.939-20.162L176.112 12.341c-3.945-7.197-12.984-9.848-20.203-5.927Z"/><path fill="#F2F2F2" d="m159.672 59.15-53.069 27.862a3.57 3.57 0 0 1-3.452-.08c-1.053-.618-1.684-1.73-1.654-2.917.03-1.187.715-2.268 1.798-2.837l53.068-27.861c1.675-.88 3.773-.286 4.686 1.325.914 1.61.297 3.63-1.377 4.508ZM175.843 61.854 111.148 98.49c-1.652.935-3.721.304-4.621-1.41-.902-1.715-.294-3.863 1.358-4.798l64.695-36.636c1.652-.936 3.721-.304 4.622 1.41.901 1.714.293 3.862-1.359 4.798ZM82.592 76.123 33.166 103.14a1.677 1.677 0 0 0-.667 2.272l21.047 38.647a1.671 1.671 0 0 0 2.268.669l49.426-27.019a1.679 1.679 0 0 0 .667-2.273L84.86 76.791a1.67 1.67 0 0 0-2.268-.668Z"/><path fill="#E21221" d="m84.123 98.372-1.219-6.95c-.201-.601-.475-.816-.823-.644l-3.228 1.864.809 1.402 2.043-1.18 1.14 6.243 1.278-.735ZM75.36 103.39l-4.4 2.54-1.19-2.063a1.863 1.863 0 0 1-.197-1.405c.123-.475.429-.88.85-1.127l1.235-.713a.368.368 0 0 0 .131-.506l-.516-.895a.372.372 0 0 0-.368-.185.364.364 0 0 0-.136.046l-2.815 1.625-.747-1.293 2.814-1.625a1.84 1.84 0 0 1 1.401-.172c.473.13.876.444 1.12.872l.516.894c.248.425.318.93.196 1.405a1.84 1.84 0 0 1-.85 1.128l-1.235.713a.355.355 0 0 0-.171.225.368.368 0 0 0 .04.281l.444.77 3.132-1.809.747 1.293-.001.001ZM75.37 94.692l1.482 2.566-1.127.65a.463.463 0 0 1-.634-.175l-1.246-2.16-1.282.74 1.48 2.566a1.506 1.506 0 0 0 .904.706 1.487 1.487 0 0 0 1.133-.14l1.524-.88 1.528 2.646 1.284-.741-3.763-6.518-1.282.74ZM56.006 115.364c-1.215.702-2.193.411-2.933-.871l-1.11-1.924c-.741-1.282-.504-2.274.711-2.975l1.375-.794-1.22-2.115 1.33-.768 4.552 7.886-2.705 1.561Zm-1.165-5.192-1.333.77c-.358.207-.422.509-.193.906l1.066 1.845c.23.398.523.493.88.286l1.334-.769-1.754-3.038Zm6.446 2.143c-1.215.702-2.192.411-2.933-.871l-1.11-1.924c-.74-1.282-.504-2.274.711-2.976l1.378-.795-1.22-2.115 1.333-.77L64 110.75l-2.712 1.565Zm-1.161-5.194-1.334.77c-.357.207-.422.509-.192.906l1.065 1.845c.23.398.523.493.88.286l1.334-.769-1.753-3.038Zm6.021 2.388c-.97.56-1.755.318-2.356-.724l-.325-.562c-.52-.9-.291-1.632.685-2.196l1.822-1.052-.188-.326c-.23-.398-.523-.493-.88-.286L62.5 105.75l-.793-1.372 2.404-1.388c1.208-.697 2.181-.405 2.921.878l2.222 3.847-3.108 1.794Zm.424-3.499-1.644.949c-.268.155-.317.378-.149.671l.195.338c.152.262.362.316.63.161l1.643-.949-.675-1.17Z"/><path fill="#E21221" fill-rule="evenodd" d="m86.924 97.507-4.845 2.797-4.554-7.888 4.751-2.743a.716.716 0 0 1 .779-.008c.074.05.138.115.185.191l3.905 6.763a.661.661 0 0 1-.218.886l-.003.002Zm-16.9 8.915-3.806-6.594c-.232-.401-.157-.793.258-1.032l10.72-6.19 4.555 7.888-10.784 6.226c-.35.202-.74.053-.942-.298Zm-4.27-6.531 3.976 6.886a.975.975 0 0 0 .298.299.83.83 0 0 0 .246.114c.05.017.042.024.095.035.267.059.546.024.79-.1l15.971-9.222c.25-.148.431-.39.506-.67a1.125 1.125 0 0 0-.107-.838l-3.894-6.746a1.112 1.112 0 0 0-1.158-.52 1.596 1.596 0 0 0-.488.196l-15.673 9.05c-.337.194-.514.403-.61.665-.08.217-.111.575.047.85ZM46.494 120.319c.041.073.104.13.18.165l.038.017a.485.485 0 0 0 .118.031c.014.001.027.003.041.003l.042.001a.491.491 0 0 0 .132-.021.545.545 0 0 0 .283-.205l.155-.255.014-.023c.065-.1.126-.202.19-.301l.378-.543.204-.269c.023-.03.05-.06.071-.088l.073-.088.038-.044c.05-.061.102-.116.153-.174.079-.089.206-.217.292-.299.153-.148.316-.284.49-.407.068-.047.134-.093.205-.133l.031-.018.06-.035.31-.152a4.35 4.35 0 0 1 .476-.172l.118-.034c.116-.033.229-.057.344-.084l.116-.024c.038-.007.075-.016.112-.022.123-.023.272-.049.393-.062l.167-.021.054-.007.388-.036c.018-.003.036-.002.054-.004l.056-.004.518-.026h.028l.053-.002h.027c.074-.005.146 0 .219-.012a.528.528 0 0 0 .386-.297.476.476 0 0 0 .042-.263.403.403 0 0 0-.163-.273c-.035-.027-.084-.061-.12-.089a2.676 2.676 0 0 0-.12-.09c-.042-.029-.081-.062-.123-.092-.021-.014-.04-.029-.06-.044l-.12-.09-.06-.045-.061-.045-.363-.27-.06-.045-.363-.271-.121-.09-.6-.453c-.12-.093-.245-.178-.365-.271l-.12-.09c-.139-.108-.284-.208-.423-.316-.138-.108-.288-.206-.424-.316l-.243-.181-.06-.045-.422-.315c-.04-.031-.08-.059-.121-.089l-.544-.407c-.12-.091-.241-.182-.363-.27l-.424-.317c-.1-.076-.202-.148-.3-.225l-.545-.407c-.16-.12-.32-.241-.483-.36a1.149 1.149 0 0 0-.185-.126.475.475 0 0 0-.222-.051.567.567 0 0 0-.52.344l-.011.034a.522.522 0 0 0-.023.101.712.712 0 0 0-.005.189c.013.124.03.249.046.372l.008.074c.012.079.017.151.027.226.014.099.022.199.035.298l.004.037.004.038.005.039.031.261.01.079c.022.199.047.4.072.599l.034.3.01.075.008.074.097.824.01.075.052.451c.004.051.014.098.018.149.006.081.024.213.035.3l.035.298c.006.051.011.102.018.151.02.15.033.3.052.449l.062.524.01.075c.007.07.02.159.026.226l.018.149c.017.125.028.251.046.374.021.175.04.349.062.523.026.2.044.401.07.6l.01.079c.006.027.006.049.01.075.005.048.014.101.018.149l.026.224.009.074c.004.026.005.05.008.076l.047.374a.542.542 0 0 0 .059.234l-.004-.002Zm1.066-3.218a.147.147 0 0 0 .066.062l.014.006a.17.17 0 0 0 .044.012l.016.001h.016a.205.205 0 0 0 .155-.084l.057-.096.005-.008.072-.113.138-.201.076-.1.026-.033.028-.033.014-.017c.018-.022.038-.043.057-.064a1.67 1.67 0 0 1 .109-.112c.057-.056.118-.107.183-.153.026-.015.05-.034.077-.049l.034-.02.115-.057c.03-.012.06-.025.091-.035l.087-.029.045-.013c.043-.012.085-.021.128-.031l.043-.009.043-.009c.045-.008.1-.018.146-.023l.063-.008.02-.002.145-.014.02-.001.02-.001.194-.01h.011l.02-.001h.01c.027-.002.054 0 .082-.005a.193.193 0 0 0 .16-.209.161.161 0 0 0-.06-.103l-.045-.033a1.168 1.168 0 0 0-.045-.034l-.045-.034-.023-.017-.044-.033-.023-.017-.022-.017-.136-.101-.023-.017-.135-.1-.045-.035-.226-.168c-.045-.034-.092-.067-.136-.101l-.045-.034c-.052-.04-.106-.077-.158-.118-.053-.04-.107-.077-.16-.118l-.09-.068c-.003-.007-.015-.011-.022-.016l-.158-.118-.045-.034-.203-.152-.136-.101-.159-.118-.112-.084-.203-.152-.18-.135a.471.471 0 0 0-.07-.045.172.172 0 0 0-.082-.019.182.182 0 0 0-.077.014.21.21 0 0 0-.116.113l-.004.013-.007.025c-.002.009 0 .009-.002.013a.27.27 0 0 0 .003.069l.017.139.003.028.01.084.013.112a.073.073 0 0 1 .002.013c.002.005 0 .01.001.015l.002.014.011.098.004.028.026.224.014.112.002.028.004.028.036.308.003.028.02.168.007.057.013.111.013.112.007.057c.007.055.012.111.02.167l.023.196.003.027.01.085.007.056.016.14.023.196.027.224.003.029.003.028.007.055.01.084c.004.007.001.018.003.027l.003.029.017.14c0 .031.008.061.022.088l-.001-.001Z" clip-rule="evenodd"/><path fill="#000" d="m57.08 124.251-1.767 1.02 2.932 5.077-.821.474-2.932-5.077-1.773 1.024-.415-.718 4.36-2.518.416.718Zm3.797 1.235a1.558 1.558 0 0 0-.315-.393 1.116 1.116 0 0 0-.384-.236.987.987 0 0 0-.432-.052c-.15.015-.303.067-.458.157-.317.183-.512.423-.585.72-.071.295-.033.627.114.994l2.06-1.19Zm1.733 1.561a1.8 1.8 0 0 1-.151.481c-.075.15-.166.291-.274.421-.107.13-.227.25-.36.359a2.97 2.97 0 0 1-.41.284c-.27.157-.55.255-.836.295a1.987 1.987 0 0 1-.843-.073 2.302 2.302 0 0 1-.79-.458 3.4 3.4 0 0 1-.685-.864 2.772 2.772 0 0 1-.332-.869 2.253 2.253 0 0 1-.009-.856c.055-.275.167-.531.336-.769.17-.238.397-.439.684-.605.24-.138.485-.224.734-.257.25-.037.495-.02.732.051s.463.197.678.378c.217.18.41.416.58.709.07.121.104.211.103.269-.002.055-.039.103-.108.143l-2.58 1.489c.15.241.306.435.472.584.163.146.331.25.505.311.175.06.352.078.531.054.18-.025.357-.088.536-.191.168-.097.3-.201.399-.311a2.398 2.398 0 0 0 .39-.575.357.357 0 0 1 .128-.155.189.189 0 0 1 .185-.01l.385.165Zm1.568-4.65a.27.27 0 0 1-.021.114.204.204 0 0 1-.078.072.327.327 0 0 1-.165.036 3.072 3.072 0 0 0-.238.008 1.93 1.93 0 0 0-.304.047 1.32 1.32 0 0 0-.366.152c-.108.063-.2.135-.273.217a.738.738 0 0 0-.157.246.572.572 0 0 0 .035.508c.059.102.136.17.232.205a.91.91 0 0 0 .329.041c.123-.006.256-.024.398-.052.143-.033.289-.063.438-.092.151-.03.303-.051.454-.063.152-.016.3-.009.44.021a1.027 1.027 0 0 1 .733.535c.11.191.179.388.206.59.03.199.013.395-.048.588a1.55 1.55 0 0 1-.311.551c-.15.176-.346.334-.589.474a2.267 2.267 0 0 1-1.617.267l.003-.406a.25.25 0 0 1 .134-.233.306.306 0 0 1 .184-.031 1.748 1.748 0 0 0 .591-.013 1.38 1.38 0 0 0 .418-.171c.129-.074.232-.155.309-.243a.815.815 0 0 0 .157-.273.653.653 0 0 0 .026-.285.716.716 0 0 0-.09-.265.459.459 0 0 0-.243-.215.817.817 0 0 0-.336-.054c-.123.003-.255.02-.398.053-.144.032-.29.063-.442.093a4.41 4.41 0 0 1-.458.066 1.525 1.525 0 0 1-.45-.026 1.212 1.212 0 0 1-.41-.183 1.243 1.243 0 0 1-.346-.403 1.332 1.332 0 0 1-.17-.51 1.344 1.344 0 0 1 .054-.542c.058-.18.156-.353.294-.519.14-.17.322-.321.55-.452.26-.151.52-.243.779-.278.261-.036.51-.022.747.042v.383Zm4.274 2.144c-.317.183-.616.232-.896.146-.278-.087-.516-.303-.715-.648l-1.417-2.453-.457.264a.193.193 0 0 1-.135.024c-.046-.013-.085-.048-.117-.104l-.184-.319.585-.462-.536-1.321a.217.217 0 0 1-.002-.139.196.196 0 0 1 .093-.107l.383-.222.795 1.377 1.115-.644.331.573-1.115.644 1.386 2.401c.093.161.2.261.322.298a.455.455 0 0 0 .362-.053.574.574 0 0 0 .162-.131.886.886 0 0 0 .096-.136c.023-.045.041-.085.056-.118a.142.142 0 0 1 .054-.069c.025-.015.049-.019.07-.013a.185.185 0 0 1 .078.029l.444.25c-.056.19-.15.366-.283.529a1.718 1.718 0 0 1-.475.404Zm3.73-8.708c0 .061-.008.11-.024.148a.2.2 0 0 1-.09.095c-.046.027-.111.036-.195.027a2.643 2.643 0 0 0-.311-.019 1.685 1.685 0 0 0-.404.034c-.15.026-.312.088-.485.188-.163.094-.293.2-.39.317a.992.992 0 0 0-.201.358.874.874 0 0 0-.034.38c.017.126.061.25.131.371.09.156.202.264.336.323.137.057.288.086.454.088.166.001.343-.017.531-.055.189-.037.383-.073.582-.11a5.24 5.24 0 0 1 .599-.081 1.89 1.89 0 0 1 .587.043c.19.041.37.123.54.247.173.119.328.299.466.538.148.256.244.52.287.792.047.271.038.537-.026.796a1.972 1.972 0 0 1-.364.737 2.408 2.408 0 0 1-.712.6 2.705 2.705 0 0 1-.552.243 2.86 2.86 0 0 1-.563.126 3.082 3.082 0 0 1-.56.006 2.586 2.586 0 0 1-.53-.114v-.548a.394.394 0 0 1 .034-.128.236.236 0 0 1 .094-.097c.054-.031.133-.037.237-.018.106.017.232.032.377.045.147.009.309.001.488-.023.181-.026.376-.099.586-.22.17-.098.309-.209.417-.332a1.025 1.025 0 0 0 .25-.838 1.275 1.275 0 0 0-.165-.454.818.818 0 0 0-.352-.351 1.061 1.061 0 0 0-.454-.098 2.4 2.4 0 0 0-.53.058l-.575.122a6.04 6.04 0 0 1-.596.086c-.2.018-.394.005-.585-.039a1.516 1.516 0 0 1-.552-.268 1.945 1.945 0 0 1-.49-.589 1.854 1.854 0 0 1-.231-.668 1.754 1.754 0 0 1 .041-.707c.063-.237.177-.463.343-.677.164-.217.385-.406.664-.567.313-.18.63-.293.95-.339.323-.049.637-.033.942.049l.034.523Zm5.118.172a1.564 1.564 0 0 0-.316-.394 1.115 1.115 0 0 0-.383-.236.987.987 0 0 0-.433-.051c-.15.014-.302.067-.457.156-.318.183-.513.423-.586.72-.07.296-.032.627.114.994l2.06-1.189Zm1.732 1.561a1.794 1.794 0 0 1-.151.48 2.167 2.167 0 0 1-.273.421c-.108.13-.228.25-.36.359-.132.108-.268.203-.41.285a2.31 2.31 0 0 1-.837.295 2.004 2.004 0 0 1-.842-.074 2.285 2.285 0 0 1-.791-.458 3.38 3.38 0 0 1-.685-.863 2.786 2.786 0 0 1-.331-.869 2.253 2.253 0 0 1-.009-.856c.054-.275.166-.532.335-.77a2.13 2.13 0 0 1 .684-.604c.24-.139.485-.225.735-.257.25-.037.494-.02.732.051.237.071.463.197.677.378.218.179.41.416.58.709.07.121.105.21.104.268-.003.056-.04.103-.109.144l-2.58 1.489c.15.24.307.435.472.583.163.146.332.25.505.312.176.06.353.077.532.053.178-.024.357-.088.535-.191.168-.097.3-.2.399-.311.1-.112.182-.216.243-.312.062-.101.112-.188.148-.263a.354.354 0 0 1 .127-.154.19.19 0 0 1 .186-.011l.384.166Zm.008-3.642a2.165 2.165 0 0 1 .091-.898c.09-.256.26-.456.51-.601.085-.049.172-.084.259-.106a.68.68 0 0 1 .253-.028l.292.623c.024.083.002.144-.065.182a1.081 1.081 0 0 1-.174.074 1.238 1.238 0 0 0-.247.11.987.987 0 0 0-.289.242.84.84 0 0 0-.158.307 1.235 1.235 0 0 0-.042.374c.002.135.017.283.044.443l1.482 2.567-.756.436-2.367-4.101.434-.25c.082-.048.147-.064.194-.048.048.012.101.053.16.124l.379.55Zm2.46-2.469 2.367 4.1-.756.436-2.367-4.1.755-.436Zm-.589-1.35a.61.61 0 0 1 .079.234.688.688 0 0 1-.016.241.627.627 0 0 1-.1.213.613.613 0 0 1-.177.157.571.571 0 0 1-.455.052.73.73 0 0 1-.213-.108.675.675 0 0 1-.242-.42.649.649 0 0 1 .012-.238.593.593 0 0 1 .27-.372.56.56 0 0 1 .228-.072.544.544 0 0 1 .234.021.624.624 0 0 1 .38.292Zm5.209.808a1.561 1.561 0 0 0-.316-.394 1.115 1.115 0 0 0-.383-.236 1.002 1.002 0 0 0-.433-.052c-.15.015-.302.067-.457.157-.318.183-.513.423-.586.72-.07.296-.032.627.114.994l2.06-1.189Zm1.732 1.561a1.805 1.805 0 0 1-.151.48 2.177 2.177 0 0 1-.273.421 2.979 2.979 0 0 1-.77.644c-.271.156-.55.254-.837.294a1.987 1.987 0 0 1-.842-.073 2.285 2.285 0 0 1-.791-.458 3.366 3.366 0 0 1-.685-.864 2.77 2.77 0 0 1-.331-.868 2.253 2.253 0 0 1-.01-.856c.055-.276.167-.532.336-.77a2.13 2.13 0 0 1 .684-.604c.24-.139.485-.225.735-.258.25-.037.494-.02.731.051.238.072.464.198.678.379.218.179.41.415.58.709.07.121.104.21.103.268-.002.055-.038.103-.108.143l-2.58 1.49c.15.24.307.435.472.583.163.146.332.25.505.311.176.06.353.078.532.054.178-.024.357-.088.535-.191.168-.097.3-.2.399-.311.1-.112.181-.216.243-.312.062-.101.112-.189.148-.263a.363.363 0 0 1 .127-.155.191.191 0 0 1 .186-.01l.384.166Zm1.569-4.651a.28.28 0 0 1-.022.115.202.202 0 0 1-.078.071.327.327 0 0 1-.165.036 2.683 2.683 0 0 0-.238.009 1.81 1.81 0 0 0-.303.046 1.32 1.32 0 0 0-.367.152c-.108.063-.199.135-.272.217a.74.74 0 0 0-.157.247.57.57 0 0 0 .034.507c.06.102.137.17.232.205a.908.908 0 0 0 .329.042 2.93 2.93 0 0 0 .398-.053c.144-.032.29-.063.438-.091.152-.03.303-.051.454-.063.153-.017.3-.01.44.02a1.03 1.03 0 0 1 .733.535c.11.191.18.388.207.591.028.198.012.394-.048.587a1.541 1.541 0 0 1-.312.551c-.15.177-.346.335-.589.475a2.265 2.265 0 0 1-1.617.266l.004-.405a.25.25 0 0 1 .134-.234.299.299 0 0 1 .183-.03c.073.008.16.014.258.018.097.001.208-.01.333-.031.124-.025.263-.082.418-.172.13-.074.232-.155.309-.243a.815.815 0 0 0 .157-.273.653.653 0 0 0 .027-.285.724.724 0 0 0-.091-.265.463.463 0 0 0-.243-.215.834.834 0 0 0-.336-.053c-.122.002-.255.02-.398.052-.143.033-.29.064-.442.094-.151.03-.304.051-.458.065a1.491 1.491 0 0 1-.449-.026 1.175 1.175 0 0 1-.41-.183 1.245 1.245 0 0 1-.346-.403 1.322 1.322 0 0 1-.17-.509 1.347 1.347 0 0 1 .053-.543c.058-.18.156-.353.294-.519.14-.17.323-.321.55-.452.26-.151.52-.243.78-.278.26-.036.51-.022.747.042l-.001.383Z" opacity=".355"/><path fill="#F2F2F2" d="m185.059 107.685-71.562 39.128a3.43 3.43 0 0 1-4.659-1.371 3.445 3.445 0 0 1 1.369-4.669l71.564-39.128a3.426 3.426 0 0 1 3.432.083 3.443 3.443 0 0 1-.144 5.957ZM203.485 112.297l-85.297 46.017c-1.691.912-3.809.297-4.73-1.374a3.428 3.428 0 0 1 1.39-4.678l85.297-46.017a3.522 3.522 0 0 1 3.486.083 3.433 3.433 0 0 1 1.669 3.026 3.437 3.437 0 0 1-1.815 2.943ZM84.197 179.44c8.28 0 14.994-6.695 14.994-14.953 0-8.259-6.713-14.954-14.994-14.954-8.28 0-14.994 6.695-14.994 14.954 0 8.258 6.713 14.953 14.994 14.953Z"/><path fill="#E6E6E6" d="M306.651 71.314H143.166c-11.542.013-20.895 9.31-20.908 20.78v190.793c.013 11.47 9.366 20.766 20.908 20.779h163.485c11.542-.013 20.895-9.309 20.908-20.779V92.094c-.013-11.47-9.366-20.767-20.908-20.78Z"/><path fill="#fff" d="M305.711 75.918H141.799c-8.241.01-14.919 6.712-14.928 14.983v193.184c.009 8.27 6.687 14.974 14.928 14.983h163.912c8.241-.009 14.919-6.713 14.928-14.983V90.901c-.009-8.271-6.687-14.974-14.928-14.983Z"/><path fill="#FF98A8" d="M282.603 124.228H222.57c-1.894 0-3.429-1.545-3.429-3.451 0-1.906 1.535-3.451 3.429-3.451h60.033a3.428 3.428 0 0 1 2.974 1.724 3.472 3.472 0 0 1 0 3.453 3.426 3.426 0 0 1-2.974 1.725ZM296.461 135.73h-73.904c-1.887 0-3.416-1.545-3.416-3.451 0-1.906 1.529-3.451 3.416-3.451h73.904c1.887 0 3.416 1.545 3.416 3.451 0 1.906-1.529 3.451-3.416 3.451Z"/><path fill="#E6E6E6" d="M208.053 104h-54.437c-.892 0-1.616.728-1.616 1.626v42.758c0 .897.724 1.626 1.616 1.626h54.437c.892 0 1.616-.729 1.616-1.626v-42.758c0-.898-.724-1.626-1.616-1.626Z"/><path fill="#E21221" fill-rule="evenodd" d="M171 136.892a.956.956 0 0 0 .181.562l.06.082c.063.077.135.147.216.206.027.02.054.04.083.057l.091.052c.096.054.2.093.308.116.289.065.591.034.859-.087l.648-.346.058-.032c.261-.13.518-.269.779-.398l1.48-.683.77-.315c.085-.034.182-.064.261-.098l.263-.097c.047-.016.091-.028.136-.046.181-.068.363-.119.544-.178.277-.091.709-.207.994-.273.51-.125 1.029-.212 1.553-.26.203-.016.403-.032.604-.031h.261l.85.056c.213.028.423.055.633.094.21.039.403.073.598.121l.296.072c.288.071.56.157.841.239l.278.089c.088.032.181.059.268.091.29.099.642.226.917.344l.385.158c.043.016.083.034.123.052l.876.392c.041.016.079.04.119.057l.125.059 1.141.573.061.033.116.059.058.032c.164.079.312.179.483.241a1.337 1.337 0 0 0 1.194-.155c.185-.125.329-.299.416-.501a.981.981 0 0 0-.013-.769c-.04-.098-.103-.228-.147-.331a7.007 7.007 0 0 0-.147-.334c-.052-.11-.096-.226-.148-.338-.028-.056-.049-.109-.075-.166l-.147-.334-.072-.165c-.026-.057-.047-.111-.074-.168l-.443-1.004c-.023-.057-.047-.108-.072-.167l-.443-1.004-.148-.337-.726-1.672c-.141-.339-.302-.669-.444-1.008-.047-.11-.101-.223-.147-.333-.163-.394-.351-.778-.515-1.172-.163-.394-.362-.779-.516-1.175l-.298-.67c-.023-.055-.049-.109-.072-.167l-.515-1.17c-.049-.114-.098-.221-.149-.333l-.661-1.509c-.147-.335-.292-.672-.445-1.004l-.516-1.175c-.122-.279-.249-.554-.363-.834l-.663-1.508c-.196-.446-.388-.892-.59-1.338a2.65 2.65 0 0 0-.241-.486 1.15 1.15 0 0 0-.411-.376 1.43 1.43 0 0 0-1.538.092l-.069.057a1.226 1.226 0 0 0-.172.184 1.74 1.74 0 0 0-.245.39c-.125.275-.243.557-.362.833l-.075.166c-.07.178-.15.335-.221.504-.092.225-.197.444-.293.667a1.208 1.208 0 0 1-.037.082l-.038.084-.036.087-.257.585c-.028.059-.049.113-.077.178-.199.443-.393.892-.587 1.338l-.297.67-.073.168c-.025.053-.049.108-.074.165l-.811 1.842c-.023.057-.047.109-.072.168l-.444 1.007c-.055.112-.093.221-.147.334-.087.178-.21.476-.296.67l-.293.667c-.049.114-.102.226-.149.337-.14.338-.299.668-.442 1.004l-.515 1.171-.075.167c-.069.156-.15.357-.221.505l-.147.333c-.118.282-.248.56-.362.84-.171.391-.348.778-.515 1.168-.191.449-.401.892-.589 1.341-.024.057-.053.116-.077.178-.023.062-.049.109-.074.166-.047.109-.094.23-.145.335l-.221.499c-.022.056-.049.109-.073.168-.023.059-.05.11-.076.169l-.362.838a1.296 1.296 0 0 0-.164.562l-.005-.009Zm6.26-5.447a.349.349 0 0 0 .066.209l.023.03c.023.029.05.056.08.078l.031.022.034.02a.513.513 0 0 0 .437.01l.241-.13.022-.012.292-.148.544-.255.286-.118.098-.037.1-.036.051-.018c.065-.025.134-.045.201-.066a4.55 4.55 0 0 1 .953-.2c.075 0 .149-.012.225-.012h.098l.317.021c.08.011.158.02.238.036.08.016.149.027.223.045l.111.026c.107.027.208.059.313.089l.104.034.101.034c.107.038.239.084.343.129l.143.058.045.02.328.146c.015.008.03.016.046.022l.045.023.426.214a.068.068 0 0 1 .024.012l.043.022.022.012c.062.029.116.066.181.089a.495.495 0 0 0 .448-.057.438.438 0 0 0 .154-.187.374.374 0 0 0 0-.287c-.016-.038-.04-.086-.056-.125-.016-.039-.034-.084-.054-.125-.02-.041-.037-.084-.057-.126-.02-.043-.018-.04-.027-.063l-.054-.123a.953.953 0 0 0-.027-.062l-.028-.063-.165-.376c-.01-.021-.018-.041-.029-.062l-.165-.375-.054-.126-.276-.624c-.052-.127-.112-.252-.165-.376-.018-.043-.038-.084-.056-.125-.06-.148-.13-.291-.192-.439-.062-.148-.132-.29-.194-.438l-.109-.252c0-.019-.02-.041-.029-.062l-.192-.437-.054-.125-.249-.563c-.054-.125-.108-.252-.165-.376l-.194-.439c-.045-.103-.092-.207-.136-.312l-.248-.563a54.215 54.215 0 0 0-.219-.5 1.194 1.194 0 0 0-.091-.178.453.453 0 0 0-.154-.141.526.526 0 0 0-.569.036l-.026.02c-.018.016-.029.028-.045.044-.016.016-.013.018-.02.025a.663.663 0 0 0-.08.148c-.047.103-.09.209-.136.312l-.027.062c-.027.063-.058.125-.083.188-.026.062-.075.165-.111.249-.003.011-.008.021-.013.031 0 .012-.011.021-.014.032a.23.23 0 0 1-.015.032l-.096.219-.027.062-.221.501-.109.25c-.011.021-.018.043-.029.062l-.027.063-.303.688-.027.062-.167.377c-.018.042-.034.083-.054.126-.02.043-.078.179-.111.25l-.109.249-.056.127c-.052.125-.112.248-.165.374l-.192.437-.027.063c-.027.059-.056.133-.084.189l-.054.125c-.045.105-.094.208-.14.313-.063.146-.128.291-.192.437-.063.146-.148.334-.219.501l-.029.064-.027.063-.055.125-.083.187c0 .019-.018.039-.027.06l-.028.065-.137.313a.478.478 0 0 0-.062.211l-.002-.004Z" clip-rule="evenodd"/><path fill="#E6E6E6" d="M282.547 179.438h-82.978c-1.249 0-2.402-.876-3.027-2.3-.624-1.425-.624-3.177 0-4.601.625-1.425 1.778-2.301 3.027-2.301h82.978c1.928.004 3.491 2.062 3.491 4.601 0 2.54-1.563 4.598-3.491 4.601ZM296.399 190.943h-96.846a3.483 3.483 0 0 1-3.013-1.724 3.435 3.435 0 0 1 0-3.454 3.483 3.483 0 0 1 3.013-1.724h96.846a3.482 3.482 0 0 1 3.013 1.724 3.43 3.43 0 0 1 0 3.454 3.482 3.482 0 0 1-3.013 1.724ZM282.544 220.849h-82.976c-1.93 0-3.494-1.545-3.494-3.451 0-1.906 1.564-3.451 3.494-3.451h82.976c1.93 0 3.494 1.545 3.494 3.451 0 1.906-1.564 3.451-3.494 3.451ZM296.404 234.651h-96.855c-1.919 0-3.475-2.059-3.475-4.601 0-2.541 1.556-4.601 3.475-4.601h96.855c1.919 0 3.474 2.06 3.474 4.601 0 2.542-1.555 4.601-3.474 4.601ZM167.238 195.545c8.281 0 14.994-6.695 14.994-14.953s-6.713-14.953-14.994-14.953c-8.281 0-14.994 6.695-14.994 14.953s6.713 14.953 14.994 14.953Z"/><path fill="#E6E6E6" stroke="#00C48C" stroke-width="2.304" d="M167.238 239.254c8.281 0 14.994-6.695 14.994-14.953 0-8.259-6.713-14.953-14.994-14.953-8.281 0-14.994 6.694-14.994 14.953 0 8.258 6.713 14.953 14.994 14.953Z"/><path fill="#E6E6E6" d="M282.544 264.56h-82.976c-1.93 0-3.494-1.545-3.494-3.451 0-1.906 1.564-3.451 3.494-3.451h82.976c1.93 0 3.494 1.545 3.494 3.451 0 1.906-1.564 3.451-3.494 3.451ZM296.404 276.062h-96.855c-1.919 0-3.475-1.545-3.475-3.451 0-1.906 1.556-3.451 3.475-3.451h96.855c1.919 0 3.474 1.545 3.474 3.451 0 1.906-1.555 3.451-3.474 3.451ZM167.238 280.664c8.281 0 14.994-6.694 14.994-14.953 0-8.258-6.713-14.953-14.994-14.953-8.281 0-14.994 6.695-14.994 14.953 0 8.259 6.713 14.953 14.994 14.953ZM169.505 200.142c.474.017.909-.258 1.098-.691.19-.433.094-.938-.242-1.272a1.152 1.152 0 0 0-1.968.854 1.151 1.151 0 0 0 1.112 1.109Z"/><path fill="#CCC" d="M25.72 335.866a111.717 111.717 0 0 1 20.563-26.839 2.765 2.765 0 0 1 3.634-.15l20.52 16.455a2.861 2.861 0 0 1 1.071 2.24 2.915 2.915 0 0 1-1.079 2.284c-8.22 6.687-14.788 15.257-19.17 25.022a2.843 2.843 0 0 1-1.91 1.619 2.734 2.734 0 0 1-2.382-.529l-20.52-16.456c-1.082-.869-1.389-2.412-.726-3.646Z"/><path fill="#fff" d="m56.095 333.205-11.467-7.488c-.907-.594-1.066-1.687-.356-2.443l.504-.536c.712-.755 2.024-.888 2.932-.296l11.468 7.488c.907.594 1.066 1.687.355 2.443l-.503.536c-.712.755-2.024.888-2.933.296ZM51.482 340.033l-11.468-8.985a2.09 2.09 0 0 1-.355-2.932l.504-.643a2.093 2.093 0 0 1 2.932-.356l11.468 8.986a2.09 2.09 0 0 1 .355 2.932l-.504.643a2.092 2.092 0 0 1-2.932.355Z"/><path fill="#FFB8B8" d="m36.906 426.564 6.852 3.631 16.216-26.847-10.113-5.36-12.955 28.576Z"/><path fill="#2F2E41" d="m34.745 420.996 14.753 6.949c2.494 1.175 4.4 3.253 5.299 5.777a9.699 9.699 0 0 1-.505 7.684l-.15.295-24.156-11.377 4.759-9.328Z"/><path fill="#FFB8B8" d="M108.419 439.399h7.815l3.718-32.208h-11.534l.001 32.208Z"/><path fill="#2F2E41" d="M106.109 432.498h15.498c2.62 0 5.132.939 6.984 2.609 1.852 1.673 2.893 3.939 2.893 6.303v.289l-25.375.001v-9.202Z"/><path fill="#FFB8B8" d="M94.577 227.75c8.918 0 16.147-7.21 16.147-16.103 0-8.894-7.229-16.104-16.147-16.104s-16.147 7.21-16.147 16.104c0 8.893 7.23 16.103 16.147 16.103Z"/><path fill="#9CD8DF" d="M105.745 427.896c-1.609-.002-2.932-1.251-3.002-2.833l-6.347-83.187a.99.99 0 0 0-.78-.93c-.443-.1-.9.107-1.112.504l-40.606 76.327c-.766 1.425-2.543 1.99-4.01 1.276l-11.32-5.573a2.948 2.948 0 0 1-1.352-3.961l24.23-48.341 16.048-36.212c6.194-12.013 12.772-18.204 20.11-18.927 7.527-.739 15.565 4.357 24.579 15.581l.073.091-.001.117-1.337 101.618c.004 1.53-1.18 2.808-2.729 2.945l-12.149 1.492a3.638 3.638 0 0 1-.295.013Z"/><path fill="#FFB8B8" d="M74.09 330.193c1.934-1.094 3.239-2.919 3.566-4.981.326-2.063-.36-4.152-1.873-5.706l2.645-64.151-12.858 1.471-1.084 62.409c-2.736 2.562-2.951 6.598-.5 9.395 2.45 2.795 6.791 3.467 10.105 1.563Z"/><path fill="#FF647C" d="m79.75 266.839-14.845-1.866c-.854-.107-1.624-.621-2.11-1.406a3.563 3.563 0 0 1-.414-2.686l3.832-15.917c.537-4.973 4.611-8.528 9.11-7.949 4.497.58 7.723 5.076 7.21 10.053l.507 16.409c.03.951-.317 1.869-.949 2.514-.632.646-1.486.955-2.341.848Z"/><path fill="#FFB8B8" d="M149.803 226.079a6.358 6.358 0 0 0-.161 1.06l-28.98 16.001-7.044-3.881-7.509 9.409 11.772 8.031c1.954 1.333 4.591 1.271 6.474-.152l29.884-22.563c2.76.978 5.867.219 7.8-1.907 1.932-2.126 2.29-5.175.895-7.657-1.393-2.482-4.246-3.881-7.164-3.512-2.919.368-5.295 2.428-5.967 5.171Z"/><path fill="#FF647C" d="m121.589 244.047-9.877 12.403a3.23 3.23 0 0 1-2.359 1.202 3.261 3.261 0 0 1-2.481-.944L95.69 245.456c-3.865-2.92-4.56-8.321-1.554-12.073 3.005-3.751 8.578-4.438 12.458-1.535l14.023 7.598a3.109 3.109 0 0 1 1.574 2.086 3.03 3.03 0 0 1-.602 2.515Z"/><path fill="#FF647C" d="m129.122 325.816-18.05-85.289c-1.783-8.425-10.116-13.973-18.861-12.559l-6.02.973c-4.224.682-7.995 2.964-10.483 6.345-3.966 5.385-5.204 12.224-3.368 18.598l9.963 34.591-7.394 37.06a2.571 2.571 0 0 0 .695 2.31c.603.617 1.477.91 2.344.791a213.224 213.224 0 0 1 16.812-1.647l3.797-14.207 1.544 13.981c8.61-.234 17.955.176 25.665 2.118a2.771 2.771 0 0 0 2.558-.625 2.583 2.583 0 0 0 .798-2.44Z"/><path fill="#2F2E41" d="M108.242 199.855c-.955-5.702-5.418-10.429-10.734-12.362-5.316-1.934-11.31-1.306-16.516.922-5.556 2.317-10.156 6.54-13.013 11.95a13.47 13.47 0 0 1-1.947-1.099c-3.083-2.104-5.584-5.101-8.92-6.751-5.88-2.909-12.989-.975-18.712 2.247-5.722 3.221-10.795 7.674-16.84 10.201-6.045 2.53-13.759 2.655-18.336-2.12-2.308 6.858-.174 14.465 5.335 19.015 5.509 4.552 13.209 5.069 19.25 1.295 6.623-4.139 10.282-12.815 17.71-15.1 4.112-1.263 8.526-.245 12.68.858a49.069 49.069 0 0 0 7.472 1.584c.03 4.677 1.747 9.176 4.82 12.629 5.127 5.537 13.173 7.012 20.616 6.922l.156-.162c-2.279-3.499-4.078-8.35-1.569-11.679 2.477-3.286 7.363-2.802 11.156-4.257 5.283-2.026 8.348-8.392 7.392-14.093Z"/><path fill="#CCC" d="M137.747 444H26.03c-.363 0-.657-.516-.657-1.151 0-.634.294-1.15.657-1.15h111.717c.363 0 .657.516.657 1.15 0 .635-.294 1.151-.657 1.151ZM344.957 349.842a91.89 91.89 0 0 1 0-30.231c.218-1.231 1.367-2.135 2.717-2.138h25.576c.84-.003 1.635.353 2.153.964.529.62.72 1.43.517 2.197a56.27 56.27 0 0 0 0 28.185 2.415 2.415 0 0 1-.517 2.197c-.518.611-1.313.967-2.153.964h-25.576c-1.35-.003-2.499-.907-2.717-2.138Z"/><path fill="#fff" d="M364.975 333.574h-12.548c-.994-.002-1.799-.862-1.8-1.925v-.752c.001-1.062.806-1.923 1.8-1.924h12.548c.993.001 1.798.862 1.799 1.924v.752c-.001 1.063-.806 1.923-1.799 1.925Z"/><path fill="#FFB8B8" d="M352.237 323.105c1.553-3.259.433-7.212-2.573-9.08a5.89 5.89 0 0 0-.915-.426l-.517-23.734-9.138 6.982 1.891 21.466c-.693 2.959.554 6.04 3.076 7.595a5.67 5.67 0 0 0 4.682.459c1.553-.532 2.82-1.715 3.494-3.262Z"/><path fill="#9CD8DF" d="m350.303 312.481-6.804.388c-1.505.037-2.786-1.029-2.946-2.449l-5.65-40.29-9.129-24.577a8.107 8.107 0 0 1 .237-6.287c.864-1.938 2.536-3.452 4.618-4.184 4.157-1.433 8.711.835 10.147 5.055l9.285 28.179 2.864 41.15a2.832 2.832 0 0 1-.687 2.063 2.777 2.777 0 0 1-1.188.806c-.24.082-.492.131-.747.146Z"/><path fill="#A0616A" d="M311.411 434.797h-9.377l-4.462-29.906h13.841l-.002 29.906Z"/><path fill="#2F2E41" d="m313.72 441.7-25.374-.001v-.289c0-2.364 1.04-4.63 2.892-6.303 1.853-1.67 4.365-2.609 6.984-2.609h15.498v9.202Z"/><path fill="#A0616A" d="M334.476 434.797h-7.814l-3.719-29.906h11.534l-.001 29.906Z"/><path fill="#2F2E41" d="m336.786 441.7-25.374-.001v-.289c0-2.364 1.04-4.63 2.893-6.303 1.852-1.67 4.364-2.609 6.984-2.609h15.497v9.202Z"/><path fill="#FF647C" d="m339.092 316.544-1.824 108.051a2.495 2.495 0 0 1-2.719 2.437l-8.945-.812a2.49 2.49 0 0 1-2.26-2.285l-5.237-67.401a.621.621 0 0 0-.634-.572.62.62 0 0 0-.611.598l-2.617 68.942a2.49 2.49 0 0 1-2.492 2.394h-9.591a2.49 2.49 0 0 1-2.49-2.336l-6.715-109.638 39.901-9.953 6.234 10.575Z"/><path fill="#FFB8B8" d="M307.951 223.151c8.281 0 14.994-7.21 14.994-16.104 0-8.894-6.713-16.104-14.994-16.104-8.281 0-14.994 7.21-14.994 16.104 0 8.894 6.713 16.104 14.994 16.104Z"/><path fill="#9CD8DF" d="M292.49 321.277a2.831 2.831 0 0 1-.829-1.98l-1.008-74.041c-.125-7.727 4.612-14.655 11.729-17.154 1.4-6.526 8.85-7.343 13.193-7.245 2.201.049 4.24 1.197 5.462 3.077l3.113 4.799 6.863 4.134c6.516 3.907 9.828 11.694 8.194 19.263l-1.056 4.939a116.52 116.52 0 0 0 1.033 52.923l2.125 8.329a2.871 2.871 0 0 1-.546 2.517 2.705 2.705 0 0 1-2.312 1.002l-2.469-.197c-1.322-.102-2.382-1.167-2.513-2.523l-.409-4.199a.308.308 0 0 0-.303-.281.308.308 0 0 0-.303.281l-.396 4.065c-.137 1.422-1.29 2.512-2.681 2.532l-34.937.554h-.043a2.681 2.681 0 0 1-1.907-.795Z"/><path fill="#2F2E41" d="M311.395 214.149c.063 2.113 1.602 3.334 3.489 4.439 1.886 1.107 4.093 1.586 6.254 2.048.592.3 1.302.283 1.877-.044.574-.325.927-.913.933-1.552l1.982-7.189a43.777 43.777 0 0 0 1.527-7.017c.476-4.566-.658-9.479-4-12.78-3.343-3.303-9.14-4.476-13.145-1.931-4.754-5.79-26.482 7-21.122 11.026.953.718 2.41-.189 3.621-.276 1.21-.088 2.566.114 3.335 1.01 1.005 1.169.567 2.913.981 4.373a4.144 4.144 0 0 0 2.128 2.396 4.47 4.47 0 0 0 3.283.249c1-.471 1.942-1.048 2.806-1.72.929-.59 2.101-1.026 3.146-.655 1.377.491 1.867 2.1 1.991 3.496.211 1.394.516 2.772.914 4.127Z"/><path fill="#FFB8B8" d="M288.15 325.235c1.596-1.181 2.543-2.953 2.584-4.839.043-1.885-.824-3.692-2.365-4.931l9.2-21-12.518 2.329-6.818 19.585c-2.137 2.581-1.84 6.227.69 8.486 2.53 2.261 6.495 2.419 9.227.37Z"/><path fill="#9CD8DF" d="m287.214 315-6.286-2.317c-1.344-.502-2.088-1.971-1.718-3.383l10.37-38.827 1.582-35.093c.13-2.883 1.767-5.47 4.285-6.773a7.675 7.675 0 0 1 7.873.489c2.346 1.603 3.666 4.374 3.454 7.252l-2.825 38.424-13.214 38.517c-.41 1.196-1.554 1.962-2.791 1.871a2.733 2.733 0 0 1-.73-.16Z"/><path fill="#CCC" d="M359.237 444H254.362c-.342 0-.618-.516-.618-1.151 0-.634.276-1.15.618-1.15h104.875c.342 0 .618.516.618 1.15 0 .635-.276 1.151-.618 1.151Z"/><path fill="#000" d="m85.57 166.307-1.525-1.585a4.537 4.537 0 0 1-.369-.429c.026.121.049.235.066.341.02.106.035.201.046.287l.31 2.474 1.473-1.088Zm2.085 1.066-.469.346c-.053.039-.104.054-.154.045a.234.234 0 0 1-.134-.076l-.911-.948-1.807 1.333.186 1.484a.449.449 0 0 1-.016.183.293.293 0 0 1-.107.152l-.468.345-.734-6.449.614-.452 4 4.037ZM168.554 181.471l-1.085-2.677a5.74 5.74 0 0 1-.234-.692 5.559 5.559 0 0 1-.117.384 4.91 4.91 0 0 1-.112.318l-1.08 2.667h2.628Zm2.144 2.571h-.835a.385.385 0 0 1-.235-.067.382.382 0 0 1-.132-.173l-.647-1.601h-3.223l-.647 1.601a.384.384 0 0 1-.367.24h-.835l2.913-6.901h1.095l2.913 6.901Z" opacity=".355"/><path fill="#00C48C" d="M168.395 226.939c.242 0 .449-.031.62-.091.174-.061.315-.145.423-.25a.95.95 0 0 0 .243-.375c.051-.148.076-.308.076-.481 0-.343-.111-.612-.333-.807-.221-.199-.565-.298-1.029-.298h-1.349v2.302h1.349Zm-1.349-5.287v2.259h1.101c.471 0 .82-.101 1.048-.303.231-.205.346-.48.346-.826 0-.394-.109-.681-.328-.861-.219-.179-.559-.269-1.021-.269h-1.146Zm1.146-.802c.405 0 .751.041 1.039.125a1.9 1.9 0 0 1 .715.36c.186.157.322.348.409.572.09.221.135.473.135.754 0 .167-.024.327-.072.481a1.464 1.464 0 0 1-.593.788c-.15.106-.327.194-.531.265.938.198 1.407.722 1.407 1.571 0 .295-.051.564-.152.808-.102.24-.251.448-.446.624a1.996 1.996 0 0 1-.719.409 3.036 3.036 0 0 1-.971.144h-2.325v-6.901h2.104Z"/><path fill="#000" d="M170.037 267.638a.26.26 0 0 1 .178.066l.483.432a3.464 3.464 0 0 1-1.235.757c-.483.179-1.064.268-1.746.268a4.9 4.9 0 0 1-1.625-.254 3.7 3.7 0 0 1-1.241-.709 3.164 3.164 0 0 1-.792-1.091 3.401 3.401 0 0 1-.282-1.396c0-.508.098-.974.293-1.397.199-.423.477-.786.833-1.09a3.867 3.867 0 0 1 1.275-.71 5.074 5.074 0 0 1 1.648-.254c.586 0 1.107.078 1.562.235.456.157.852.365 1.189.625l-.402.466a.313.313 0 0 1-.258.117.533.533 0 0 1-.259-.089 3.243 3.243 0 0 0-.385-.198 3.26 3.26 0 0 0-.585-.202 3.636 3.636 0 0 0-.873-.089c-.41 0-.785.059-1.126.178a2.531 2.531 0 0 0-.884.508c-.245.22-.437.491-.575.814a2.781 2.781 0 0 0-.201 1.086c0 .41.071.775.213 1.095.141.32.337.591.586.813.248.223.541.392.878.508.337.116.701.174 1.091.174.238 0 .45-.011.638-.033.191-.025.366-.061.522-.108a2.6 2.6 0 0 0 .454-.179c.142-.075.282-.164.419-.268a.399.399 0 0 1 .098-.051.258.258 0 0 1 .109-.024Z" opacity=".355"/></svg>